<?xml version="1.0" standalone="no"?>
<!DOCTYPE svg PUBLIC "-//W3C//DTD SVG 20010904//EN"
 "http://www.w3.org/TR/2001/REC-SVG-20010904/DTD/svg10.dtd">
<svg version="1.0" xmlns="http://www.w3.org/2000/svg"
 width="190.000000pt" height="40.000000pt" viewBox="0 0 190.000000 40.000000"
 preserveAspectRatio="xMidYMid meet">

<g transform="translate(0.000000,40.000000) scale(0.100000,-0.100000)"
fill="#40003E" stroke="none">
<path d="M201 350 c19 -11 24 -80 7 -80 -9 0 -9 -3 0 -12 16 -16 16 -90 0
-106 -7 -7 -36 -12 -65 -12 -55 0 -74 15 -72 57 0 10 3 13 6 6 2 -7 11 -13 19
-13 17 0 18 -12 2 -30 -11 -12 -10 -12 5 -1 14 11 17 11 17 0 0 -11 2 -11 9 1
6 8 8 17 5 21 -2 4 3 13 12 20 14 12 20 9 41 -16 l25 -30 -18 32 c-15 28 -16
34 -3 50 8 10 -3 5 -25 -11 -28 -21 -40 -25 -46 -16 -6 10 -9 9 -12 -1 -3 -8
-8 -11 -12 -7 -4 3 -1 19 8 35 8 15 15 21 16 13 0 -9 6 -5 13 10 7 13 24 30
37 37 22 11 15 19 -13 14 -4 -1 -3 8 3 19 9 16 8 18 -5 14 -8 -3 -13 -9 -11
-13 3 -4 1 -13 -5 -21 -7 -12 -9 -11 -9 5 -1 17 -5 15 -30 -15 -17 -19 -30
-39 -30 -45 0 -5 5 -2 11 8 5 9 17 17 25 17 12 0 12 -4 -3 -27 -9 -16 -19 -30
-21 -33 -1 -2 -7 2 -12 10 -20 31 -10 -61 10 -101 21 -41 75 -83 97 -74 7 2
15 0 18 -5 8 -13 55 -13 55 -1 0 5 9 7 19 4 13 -3 33 8 62 35 39 36 43 44 42
83 -2 33 1 40 8 29 16 -24 0 51 -17 78 -8 12 -19 20 -25 16 -12 -7 -39 14 -39
30 0 6 7 2 15 -8 8 -11 15 -15 15 -8 0 14 -48 47 -57 38 -3 -3 -1 -6 6 -6 9 0
11 -8 8 -22 -4 -12 -2 -28 4 -34 15 -18 -8 -61 -24 -45 -6 6 -15 11 -21 11 -5
0 -2 -6 9 -13 10 -8 15 -19 11 -25 -5 -8 -2 -10 8 -6 9 3 16 12 16 18 0 7 7
21 15 32 13 18 14 17 15 -19 0 -28 -3 -36 -12 -31 -10 5 -10 4 0 -7 10 -11 8
-15 -9 -25 -19 -10 -18 -11 14 -10 30 1 34 4 26 18 -13 24 -12 71 2 62 8 -4 8
0 0 15 -9 17 -9 21 3 21 14 0 26 -21 26 -46 0 -9 -4 -13 -9 -9 -6 3 -9 -13 -8
-37 l2 -43 -49 -3 c-27 -1 -55 3 -62 9 -17 14 -18 91 -2 107 9 9 9 12 0 12
-17 0 -12 69 7 80 12 7 5 9 -24 9 -29 0 -36 -2 -24 -9z m-81 -50 c0 -5 -5 -10
-11 -10 -5 0 -7 5 -4 10 3 6 8 10 11 10 2 0 4 -4 4 -10z m20 -185 c10 -12 10
-15 -1 -16 -10 0 -11 -2 -1 -6 6 -2 12 -9 12 -14 0 -6 -9 -5 -21 1 -11 7 -18
14 -15 17 3 3 -2 12 -12 19 -16 12 -15 13 4 14 12 0 27 -7 34 -15z m54 3 c-5
-9 -2 -9 9 1 15 12 17 11 17 -8 0 -17 -5 -21 -29 -19 -16 1 -34 10 -40 20 -10
16 -8 18 20 18 21 0 28 -4 23 -12z m106 4 c0 -4 -5 -13 -12 -20 -9 -9 -16 -8
-32 6 -20 16 -20 16 -7 0 12 -16 11 -18 -3 -18 -16 0 -22 21 -9 33 9 10 63 9
63 -1z m36 -7 c-11 -8 -16 -15 -12 -15 5 0 3 -7 -4 -15 -7 -8 -16 -12 -21 -9
-5 3 -9 1 -9 -5 0 -5 -13 -9 -30 -9 -16 1 -30 5 -30 11 0 5 8 7 18 5 9 -3 31
1 47 8 17 7 25 13 18 14 -22 0 -2 30 21 30 21 -1 21 -1 2 -15z m-116 -50 c0
-12 -4 -13 -17 -7 -10 5 -24 7 -30 5 -7 -3 -13 -1 -13 4 0 5 14 10 30 11 21 2
30 -2 30 -13z"/>
<path d="M180 330 c-8 -5 -10 -10 -5 -10 6 0 17 5 25 10 8 5 11 10 5 10 -5 0
-17 -5 -25 -10z"/>
<path d="M256 325 c13 -10 15 -14 5 -15 -8 0 -12 -3 -8 -6 3 -3 11 -3 17 1 13
8 -5 35 -23 35 -6 0 -2 -7 9 -15z"/>
<path d="M464 287 c-3 -8 -4 -52 -2 -98 l3 -84 47 1 c25 0 53 6 62 13 18 15
22 66 5 76 -6 4 -7 19 -4 37 10 41 -17 68 -67 68 -23 0 -41 -5 -44 -13z m84
-39 c-2 -17 -11 -24 -30 -26 -24 -3 -28 0 -28 22 0 22 4 26 31 26 26 0 30 -3
27 -22z m12 -73 c18 -21 -4 -45 -41 -45 -26 0 -29 4 -29 30 0 26 3 30 29 30
16 0 34 -7 41 -15z"/>
<path d="M652 205 c3 -97 20 -135 26 -57 3 46 26 58 37 20 11 -36 35 -69 45
-63 6 3 3 23 -6 46 -15 36 -15 41 0 58 37 41 1 91 -64 91 l-41 0 3 -95z m85
49 c4 -11 -1 -22 -12 -30 -30 -22 -45 -17 -45 16 0 25 4 30 25 30 15 0 28 -7
32 -16z"/>
<path d="M830 200 c0 -77 3 -101 13 -97 8 2 12 31 12 97 0 66 -4 95 -12 98
-10 3 -13 -21 -13 -98z"/>
<path d="M930 199 l0 -100 43 3 c49 4 56 22 10 26 l-33 3 0 85 c0 49 -4 84
-10 84 -6 0 -10 -40 -10 -101z"/>
<path d="M1070 199 l0 -100 43 3 c49 4 56 22 10 26 l-33 3 0 85 c0 49 -4 84
-10 84 -6 0 -10 -40 -10 -101z"/>
<path d="M1210 200 c0 -60 4 -100 10 -100 6 0 10 40 10 100 0 60 -4 100 -10
100 -6 0 -10 -40 -10 -100z"/>
<path d="M1502 207 c3 -111 20 -131 28 -32 l5 66 65 -66 c35 -36 68 -65 72
-65 4 0 8 43 8 96 0 72 -3 95 -12 92 -8 -3 -15 -30 -18 -66 l-5 -62 -40 37
c-22 20 -55 50 -73 67 l-33 31 3 -98z"/>
<path d="M1732 288 c3 -7 14 -14 26 -16 19 -3 21 -10 24 -85 4 -107 22 -107
26 0 3 75 5 82 24 85 12 2 23 9 26 16 3 9 -14 12 -63 12 -49 0 -66 -3 -63 -12z"/>
<path d="M1320 200 c-43 -91 -46 -118 -12 -87 24 22 107 23 116 2 6 -17 26
-20 26 -4 0 16 -73 179 -80 179 -4 0 -26 -41 -50 -90z m65 0 c20 -39 20 -40
-15 -40 -16 0 -30 4 -30 10 0 10 22 60 26 60 2 0 10 -13 19 -30z"/>
<path d="M168 273 c7 -3 16 -2 19 1 4 3 -2 6 -13 5 -11 0 -14 -3 -6 -6z"/>
<path d="M268 273 c7 -3 16 -2 19 1 4 3 -2 6 -13 5 -11 0 -14 -3 -6 -6z"/>
<path d="M140 261 c0 -6 4 -13 10 -16 6 -3 7 1 4 9 -7 18 -14 21 -14 7z"/>
<path d="M160 160 c8 -5 20 -10 25 -10 6 0 3 5 -5 10 -8 5 -19 10 -25 10 -5 0
-3 -5 5 -10z"/>
</g>
</svg>
