<svg id="Layer_2" data-name="Layer 2" xmlns="http://www.w3.org/2000/svg" viewBox="0 0 38.87 37.87"><defs><style>.cls-1{fill:none;stroke:#40003e;stroke-miterlimit:10;}</style></defs><circle class="cls-1" cx="22.29" cy="30.14" r="2.41"/><path class="cls-1" d="M48.66,48.38a6.75,6.75,0,1,0-11.12,5.13,4.66,4.66,0,0,1,8.75,0A6.72,6.72,0,0,0,48.66,48.38Z" transform="translate(-19.63 -17.76)"/><path class="cls-1" d="M41.91,50.45a4.67,4.67,0,0,0-4.37,3.06,6.72,6.72,0,0,0,8.75,0A4.67,4.67,0,0,0,41.91,50.45Z" transform="translate(-19.63 -17.76)"/><line class="cls-1" x1="4.77" y1="5.82" x2="6.97" y2="10.47"/><line class="cls-1" x1="24.53" y1="9.84" x2="16.13" y2="14.19"/><line class="cls-1" x1="28.43" y1="13.75" x2="24.7" y2="24.33"/><line class="cls-1" x1="33.25" y1="23.81" x2="27.96" y2="26.98"/><line class="cls-1" x1="14.2" y1="21.71" x2="17.91" y2="25.4"/><line class="cls-1" x1="6.5" y1="22.46" x2="4.77" y2="25.71"/><line class="cls-1" x1="11.79" y1="32.69" x2="15.76" y2="32.33"/><circle class="cls-1" cx="3.35" cy="3.35" r="2.85"/><circle class="cls-1" cx="18.61" cy="3.35" r="2.85"/><circle class="cls-1" cx="35.52" cy="22.1" r="2.85"/><circle class="cls-1" cx="3.35" cy="28.17" r="2.85"/><circle class="cls-1" cx="9.05" cy="33.48" r="2.85"/><circle class="cls-1" cx="30.84" cy="6.96" r="2.41"/><path class="cls-1" d="M57.21,25.2a6.75,6.75,0,1,0-11.12,5.13,4.66,4.66,0,0,1,8.75,0A6.72,6.72,0,0,0,57.21,25.2Z" transform="translate(-19.63 -17.76)"/><path class="cls-1" d="M50.47,27.27a4.67,4.67,0,0,0-4.38,3.06,6.72,6.72,0,0,0,8.75,0A4.67,4.67,0,0,0,50.47,27.27Z" transform="translate(-19.63 -17.76)"/><circle class="cls-1" cx="9.82" cy="16.1" r="2.41"/><path class="cls-1" d="M36.19,34.34a6.75,6.75,0,1,0-11.12,5.13,4.66,4.66,0,0,1,8.75,0A6.72,6.72,0,0,0,36.19,34.34Z" transform="translate(-19.63 -17.76)"/><path class="cls-1" d="M29.45,36.41a4.66,4.66,0,0,0-4.38,3.06,6.72,6.72,0,0,0,8.75,0A4.65,4.65,0,0,0,29.45,36.41Z" transform="translate(-19.63 -17.76)"/><line class="cls-1" x1="21.4" y1="3.95" x2="24.75" y2="4.55"/></svg>