<svg id="Layer_2" data-name="Layer 2" xmlns="http://www.w3.org/2000/svg" viewBox="0 0 37.04 38.23"><defs><style>.cls-1,.cls-2{fill:none;stroke:#40003e;stroke-linecap:round;}.cls-1{stroke-miterlimit:10;}.cls-2{stroke-linejoin:round;}</style></defs><line class="cls-1" x1="6.59" y1="28.18" x2="18.54" y2="28.18"/><path class="cls-1" d="M43.25,23.06H48.4a.38.38,0,0,1,.37.37V41.55a.37.37,0,0,1-.37.36H25.1" transform="translate(-15.46 -10.38)"/><path class="cls-1" d="M22.31,41.91H19.43a.37.37,0,0,1-.37-.36V23.43a.38.38,0,0,1,.37-.37h5.66" transform="translate(-15.46 -10.38)"/><path class="cls-1" d="M47.11,20.85h1.62A2.14,2.14,0,0,1,50.87,23V41.76a2.13,2.13,0,0,1-2.14,2.13H19a2.13,2.13,0,0,1-2.14-2.13V23A2.14,2.14,0,0,1,19,20.85h2.43" transform="translate(-15.46 -10.38)"/><path class="cls-1" d="M14.46,33.52h8.15a0,0,0,0,1,0,0V34a2.05,2.05,0,0,1-2.05,2.05h-4A2.05,2.05,0,0,1,14.46,34v-.5A0,0,0,0,1,14.46,33.52Z"/><path class="cls-2" d="M.5,33.52h36a0,0,0,0,1,0,0v1.62a2.6,2.6,0,0,1-2.6,2.6H3.1a2.6,2.6,0,0,1-2.6-2.6V33.52a0,0,0,0,1,0,0Z"/><path class="cls-1" d="M39.18,13.7l8.1,4.92a1.23,1.23,0,0,1,0,2.12L34.88,27.83a1.89,1.89,0,0,1-1.92,0L21.08,20.55a1.23,1.23,0,0,1,0-2.1L33,11.15a1.87,1.87,0,0,1,2,0l1.73,1" transform="translate(-15.46 -10.38)"/><path class="cls-1" d="M34.88,27.83a1.89,1.89,0,0,1-1.92,0l-7.13-4.35v2.74a5.43,5.43,0,0,0,5.43,5.43h5.65a5.43,5.43,0,0,0,5.43-5.43V24.9c0-.43,0-.92,0-1.35Z" transform="translate(-15.46 -10.38)"/><polyline class="cls-1" points="18.73 9.1 23.72 14.99 23.72 22.89"/><path class="cls-1" d="M40.61,35.45a1.43,1.43,0,1,1-2.85,0,6.24,6.24,0,0,1,1.42-2.18A7.93,7.93,0,0,1,40.61,35.45Z" transform="translate(-15.46 -10.38)"/><line class="cls-1" x1="6.59" y1="25.62" x2="14.46" y2="25.62"/></svg>