<svg id="Layer_2" data-name="Layer 2" xmlns="http://www.w3.org/2000/svg" viewBox="0 0 39.5 39.5"><defs><style>.cls-1,.cls-2{fill:none;stroke:#40003e;stroke-miterlimit:10;stroke-width:1.5px;}.cls-2{stroke-linecap:round;}</style></defs><circle class="cls-1" cx="19.75" cy="15.2" r="5.91"/><path class="cls-2" d="M45.13,15.72a16.71,16.71,0,0,0-7-1.53A19,19,0,0,0,26.69,48.34a11.48,11.48,0,0,1,22.88,0,19,19,0,0,0,2.8-27.72" transform="translate(-18.38 -13.44)"/><path class="cls-1" d="M38.13,37.83A11.48,11.48,0,0,0,26.69,48.34a18.92,18.92,0,0,0,22.88,0A11.49,11.49,0,0,0,38.13,37.83Z" transform="translate(-18.38 -13.44)"/><path class="cls-2" d="M48.73,17.68" transform="translate(-18.38 -13.44)"/><circle class="cls-2" cx="30.42" cy="4.31" r="0.07"/></svg>