<svg id="Layer_2" data-name="Layer 2" xmlns="http://www.w3.org/2000/svg" viewBox="0 0 33.17 29.03"><defs><style>.cls-1,.cls-2{fill:none;stroke:#40003e;}.cls-1{stroke-linecap:round;stroke-linejoin:round;}.cls-2{stroke-miterlimit:10;}</style></defs><path class="cls-1" d="M41.3,28.83a5.3,5.3,0,0,1-5.3,5.3,5.85,5.85,0,0,1-.85-.07c-.41.38-2.21,2.07-2.65,2.46,0-.55,0-3.17,0-3.73a5.3,5.3,0,1,1,8.82-4Z" transform="translate(-19.41 -15.59)"/><circle class="cls-2" cx="14.59" cy="13.43" r="0.25"/><circle class="cls-2" cx="16.59" cy="13.43" r="0.25"/><circle class="cls-2" cx="18.6" cy="13.43" r="0.25"/><path class="cls-1" d="M48,33.07V28.13a12,12,0,0,0-12-12h0a12,12,0,0,0-12,12V40.9A2.12,2.12,0,0,0,26.08,43h5.69" transform="translate(-19.41 -15.59)"/><path class="cls-1" d="M2.27,14.44H4.54a0,0,0,0,1,0,0v7.16a0,0,0,0,1,0,0H2.27A1.77,1.77,0,0,1,.5,19.84V16.21A1.77,1.77,0,0,1,2.27,14.44Z"/><path class="cls-1" d="M49.81,30h2.27a0,0,0,0,1,0,0v7.16a0,0,0,0,1,0,0H49.81A1.77,1.77,0,0,1,48,35.42V31.8A1.77,1.77,0,0,1,49.81,30Z" transform="translate(80.71 51.63) rotate(-180)"/><rect class="cls-1" x="4.54" y="12.37" width="3.53" height="11.06" rx="1.76"/><rect class="cls-1" x="25.04" y="12.37" width="3.53" height="11.06" rx="1.76"/><rect class="cls-1" x="12.55" y="26.39" width="4.31" height="2.14" rx="1.07"/></svg>