<svg id="Layer_2" data-name="Layer 2" xmlns="http://www.w3.org/2000/svg" viewBox="0 0 97.19 107.98"><defs><style>.cls-1,.cls-4,.cls-5,.cls-6,.cls-7{fill:none;}.cls-1,.cls-2,.cls-3,.cls-4,.cls-5,.cls-6,.cls-7{stroke:#b088ff;}.cls-1,.cls-2,.cls-3,.cls-4{stroke-miterlimit:10;}.cls-1,.cls-4,.cls-5,.cls-7{stroke-width:3px;}.cls-2,.cls-3{fill:#b088ff;}.cls-3,.cls-4,.cls-7{stroke-linecap:round;}.cls-3{stroke-width:4px;}.cls-5,.cls-6,.cls-7{stroke-linejoin:round;}.cls-6{stroke-width:3.33px;}</style></defs><rect class="cls-1" x="26.91" y="40.17" width="43.4" height="29.79" rx="2.34"/><circle class="cls-2" cx="48.61" cy="53.12" r="3.1"/><line class="cls-3" x1="48.61" y1="55.2" x2="48.61" y2="62.12"/><path class="cls-4" d="M48.7,16.85h0a14,14,0,0,1,14,14v9.36a0,0,0,0,1,0,0H34.74a0,0,0,0,1,0,0V30.8A14,14,0,0,1,48.7,16.85Z"/><path class="cls-5" d="M66.47,114h0" transform="translate(-17.86 -14.64)"/><path class="cls-5" d="M107.37,41.36V58c0,22.6-20,47.13-40.92,56-20.93-8.86-40.92-33.39-40.92-56V41.36a36.45,36.45,0,0,0,11.11-7.1,36.69,36.69,0,0,0,8.13-11.2H88.13a36.69,36.69,0,0,0,8.13,11.2A36.45,36.45,0,0,0,107.37,41.36Z" transform="translate(-17.86 -14.64)"/><path class="cls-5" d="M66.45,114h0" transform="translate(-17.86 -14.64)"/><path class="cls-6" d="M66.47,121.46h0" transform="translate(-17.86 -14.64)"/><path class="cls-7" d="M112.74,67.43c-5.22,22.81-25.35,45.15-46.29,54-20.86-8.84-40.92-31.06-46.23-53.78" transform="translate(-17.86 -14.64)"/><path class="cls-7" d="M19,60.34c-.11-1.34-.17-2.68-.17-4V35c3.2-1.3,8.08-1.82,12.92-6.33,5.12-4.79,5.72-9.83,7.22-13H94c1.5,3.2,2,8.24,7.12,13,4.84,4.51,9.72,5,12.92,6.33V56.33c0,1.23-.05,2.47-.15,3.71" transform="translate(-17.86 -14.64)"/><path class="cls-6" d="M66.45,121.45h0" transform="translate(-17.86 -14.64)"/></svg>